<svg xmlns="http://www.w3.org/2000/svg" viewBox="0 0 234.5 161.5">
	<g>
		<path d="M154.31,133.58c5.14-5,21.36-23,6.65-38.47-17.27-18.15-28.57-9-31.42-19.34s-28.1-17.52-37-1.66-1.3,26.06-12.31,30.69-13.63-7.53-23.75,6.56S55.06,135,55.06,135H58c-32,2.25-53.16,6.21-53.16,10.72,0,3.72,29.9,9.13,25.67,9.13-16.85,0-30.5,1.49-30.5,3.33s13.65,3.34,30.5,3.34S61,160,61,158.16c0-.73-2.16-1.4-5.81-1.95,18.38,1.38,40.58,2.19,64.48,2.19,63.42,0,114.83-5.69,114.83-12.7C234.5,140,200.8,135.21,154.31,133.58Z" style="fill: #f6a160;opacity: 0.5"/>
		<path d="M202.6,140c1.18-.75,2.55-1.55,4.13-2.39l.29-.16c-13.8-1.78-32-3.14-52.71-3.87,5.14-5,21.36-23,6.65-38.47a43.43,43.43,0,0,0-14-10.29,63.86,63.86,0,0,0,2.78,9.3c7,18-8.55,13.93-13.22,25.93-3.17,8.14-2,14.65,1.67,20Z" style="fill: #d37140;opacity: 0.5"/>
		<g>
			<path d="M205.6,140H141.18c-3.69-5.3-4.84-11.81-1.67-20,4.67-12,20.22-7.93,13.22-25.93s-9.06-51.82,23-52c23.87-.14,30,19.5,31.5,41.5s9,18,14,26.5,4.5,19-11.5,27.49C208.15,138.45,206.78,139.25,205.6,140Z" style="fill: #f6a160"/>
			<line x1="178.53" y1="140.05" x2="178.53" y2="75.56" style="fill: none;stroke: #723d39;stroke-linecap: round;stroke-miterlimit: 10;stroke-width: 1.5px"/>
			<line x1="185.88" y1="82.22" x2="178.53" y2="93.48" style="fill: none;stroke: #723d39;stroke-linecap: round;stroke-miterlimit: 10;stroke-width: 1.5px"/>
			<line x1="167.88" y1="87.85" x2="178.53" y2="107.31" style="fill: none;stroke: #723d39;stroke-linecap: round;stroke-miterlimit: 10;stroke-width: 1.5px"/>
			<line x1="185.88" y1="109.86" x2="178.53" y2="119.78" style="fill: none;stroke: #723d39;stroke-linecap: round;stroke-miterlimit: 10;stroke-width: 1.5px"/>
		</g>
	</g>
	<g>
		<line x1="74.79" y1="129.33" x2="97.37" y2="119.48" style="fill: none;stroke: #2e2044;stroke-linecap: round;stroke-linejoin: round;stroke-width: 1.52499px"/>
		<ellipse cx="74.79" cy="129.33" rx="8.37" ry="1.31" style="fill: #8d3646"/>
		<g>
			<path d="M77.37,113.36l-7,6.12L75.1,122l5.35-4.28A17.4,17.4,0,0,1,77.37,113.36Z" style="fill: #de8370"/>
			<path d="M70.41,119.48l-3,1.89s4.16,3.94,7.21,6.49c1.46,1.22,4.34.48,4.71.47.55,0,.15-2.36-2.39-2-.81-2.07-1.82-4.25-1.82-4.25Z" style="fill: #2e2044"/>
		</g>
		<path d="M76.67,89.51s10.45,10.41,13.2,12.24c-6.08,4.5-15.27,13.17-15.27,13.17l5.52,6.74s22.19-15.24,23.35-18.24-5.85-11.67-5.85-11.67S79.4,86.8,76.67,89.51Z" style="fill: #e08443"/>
		<polyline points="126.37 70.25 147.37 122 53.82 124.08 76.67 87.9 76.67 123.58" style="fill: none;stroke: #2e2044;stroke-linecap: round;stroke-linejoin: round;stroke-width: 2px"/>
		<line x1="76.67" y1="98.11" x2="130.27" y2="79.84" style="fill: none;stroke: #2e2044;stroke-linecap: round;stroke-linejoin: round;stroke-width: 2px"/>
		<path d="M71.25,84.73s-4.46-.35-5,.34-.79,4,1.1,4.35,15.9-.67,15.9-.67S73.54,84.73,71.25,84.73Z" style="fill: #8d3646"/>
		<path d="M117.5,66.41s5.87-1.41,7.62-.66,3.25,3.82,0,5.53c0-1.78-3.75-1.46-4,0l-.25,1.47-3.5-1.47Z" style="fill: #de8370"/>
		<path d="M126,71.8a2.62,2.62,0,1,1-2.62-2.62A2.62,2.62,0,0,1,126,71.8Z" style="fill: #8d3646"/>
		<g>
			<path d="M81.73,124.09A27.91,27.91,0,1,1,53.82,96.18,27.91,27.91,0,0,1,81.73,124.09Z" style="fill: none;stroke: #8d3646;stroke-linecap: round;stroke-linejoin: round;stroke-width: 2px"/>
			<circle cx="53.82" cy="124.09" r="24.37" style="fill: none;stroke: #2e2044;stroke-linecap: round;stroke-linejoin: round;stroke-width: 1.52499px"/>
			<circle cx="53.82" cy="124.09" r="2.42" style="fill: #2e2044"/>
		</g>
		<g>
			<path d="M175.28,121.66a27.91,27.91,0,1,1-27.91-27.91A27.91,27.91,0,0,1,175.28,121.66Z" style="fill: none;stroke: #8d3646;stroke-linecap: round;stroke-linejoin: round;stroke-width: 2px"/>
			<circle cx="147.37" cy="121.66" r="24.37" style="fill: none;stroke: #2e2044;stroke-linecap: round;stroke-linejoin: round;stroke-width: 1.52499px"/>
			<circle cx="147.37" cy="121.66" r="2.42" style="fill: #2e2044"/>
		</g>
		<path d="M106.27,120.32A10.33,10.33,0,1,1,96,110,10.32,10.32,0,0,1,106.27,120.32Z" style="fill: #8d3646"/>
		<line x1="106.27" y1="137.43" x2="95.95" y2="120.32" style="fill: none;stroke: #2e2044;stroke-linecap: round;stroke-linejoin: round;stroke-width: 1.52499px"/>
		<path d="M89.87,76s27,7,28.48,13.25-8.23,36.25-8.23,36.25-5.5,1.75-10-1.5c1.5-9.75,3-29,3-29s-31.92-3.32-32-10.2C73.12,80.75,85,74.63,89.87,76Z" style="fill: #f6a160"/>
		<path d="M85.87,62.5s2.75,11.5,4,13.5c-3.25,2.5-7.5,1.5-11.75,5A24.24,24.24,0,0,1,69,85.57s-3.67.18.25-11.32A36.13,36.13,0,0,1,81.73,57Z" style="fill: #2e2044"/>
		<path d="M74.46,12.59s-7.49,9.94,4,12.63c1.15-1.3,3.32-3.47,3.82-3.3s8-3,8-3h.76s3.91,1.69,3.41-2.15-3.84-6.66-9.84-8.33c2.84-2.83,3.67-9.83-5.33-8.17-2.83-.66-5,3.34-5,3.34s-.83-.67-2.83.16S65.79,12.09,74.46,12.59Z" style="fill: #8d3646"/>
		<path d="M90.87,16s2,13.25-7.5,11c-1,4.75,0,5.75,0,5.75l-6-1.75,1.25-6.62s-3.38-2.25-1.25-5.13,4.5.75,4.5.75A9.57,9.57,0,0,0,90.87,16Z" style="fill: #de8370"/>
		<path d="M95.79,59.25s-7.67-27-16-28.5S64.12,59,47.37,63.75,30.12,73,33.87,79,67.58,96,81.73,61.75c3.64,6.5,5.14,8,7.39,9.25s25.25,8,25.25,8a19.27,19.27,0,0,0,3-13.5C113.12,64.25,95.79,59.25,95.79,59.25Z" style="fill: #8b6562"/>
		<path d="M81.73,61.75s-3.42-8.5-4.26-15.33a34.61,34.61,0,0,0,0,6.67l-1.85-2.84a38.6,38.6,0,0,0,5.84,12.14C81.46,61.39,81.73,61.75,81.73,61.75Z" style="fill: #8b6562;opacity: 0.30000000000000004;mix-blend-mode: multiply"/>
		<polygon points="95.79 59.25 91.79 62.39 96.96 59.59 95.79 59.25" style="fill: #8b6562;opacity: 0.30000000000000004;mix-blend-mode: multiply"/>
		<path d="M103.12,95l3.17-3.25-1.58,2.5a29.85,29.85,0,0,1,3.08-.87,39.73,39.73,0,0,1-4.73,2.38Z" style="fill: #8b6562;opacity: 0.30000000000000004;mix-blend-mode: multiply"/>
		<g>
			<polygon points="47.93 49.63 44.37 51.5 44.97 52.5 47.93 49.63" style="fill: #8d3646"/>
			<path d="M78.68,52.42a26.59,26.59,0,0,1-9.07,7.27,12.62,12.62,0,0,0-2.11-1.56c2.52-7.41,5.83-22.85,7.73-25.38,0,0-14.11-2.33-17.44,0-1.92,1.35-4.74,8.2-6.67,14.78h0s-2.66-.2-3.37.86c-1,1.5-2.51,10.41-2.25,10.87.87,1.57,3.57.57,3.57.57,1.39,4.7,14.19,3.84,16.55,2.18a25.18,25.18,0,0,0,13.91-6.59Z" style="fill: #2e2044"/>
			<path d="M51.12,47.53s-2.48,10-2,12.29l-.64.18s.66-9.47,1.68-12.48Z" style="fill: #211833"/>
			<path d="M70.55,47.52c-.43-.27-18.8-2.08-18.94-1.63l-.17.55s18,1.65,18.85,2.06Z" style="fill: #211833"/>
			<polygon points="65.79 31.72 61 46.84 62.5 47.16 66.88 31.82 65.79 31.72" style="fill: #211833"/>
			<polygon points="63.94 46.72 63.94 45.17 68.21 45.95 68.06 47.16 63.94 46.72" style="fill: #fff"/>
		</g>
		<path d="M83.37,27a9.37,9.37,0,0,1-2.91-1.78c.41,1.45,2.7,2.94,2.7,2.94Z" style="fill: #de8370;opacity: 0.6000000000000001;mix-blend-mode: multiply"/>
		<g>
			<path d="M101.93,125l-.81,8.59,5.25-1,1.42-6.71S103.74,126.07,101.93,125Z" style="fill: #de8370"/>
			<path d="M101.12,133.63,100,137s12.5.88,13.37.13-7-4.5-7-4.5Z" style="fill: #2e2044"/>
		</g>
		<ellipse cx="106.62" cy="137.43" rx="8.37" ry="1.31" style="fill: #8d3646"/>
	</g>
</svg>
