<svg id="b1fcc3fa-7409-45ca-b86c-72ae3d4eebee" xmlns="http://www.w3.org/2000/svg" viewBox="0 0 235.2 14.74">
  <path d="M2.3,7.64,19.1,7l15.4-.6,15-.7c2.2-.1,4.5-.3,6.8-.3l10-.2h5.5l10.3.2L97.5,6,129,7.34l15.5.8,15.4.7c9.7.4,19.4.7,29,1.3l8,.5,8.9.7,7.7.7,3.2.3,3.7.5,5.2.6,6.6,1.2.6.1a2.31,2.31,0,0,0,2.3-1.6,2.54,2.54,0,0,0-.2-1.9,2.37,2.37,0,0,0-1.3-1.1l-4.2-.8-4.2-.7q-6.84-.92-13.7-1.6a2.38,2.38,0,0,0,1-2.4,3.31,3.31,0,0,0-1-1.5l-1.1-.5c-.86-.17-1.73-.3-2.6-.4l-2-.3-3.8-.2-7.5-.4L179,.84,163.6.54l-8.1-.2H131.1L115.3.14C105.6,0,95.7-.06,85.9,0H71.3c-5.2,0-10.4,0-15.6.2L45.4.34l-5.9.1-9.4.4-6.2.3c-7.4.5-14.7,1-22,1.7a2,2,0,0,0-1.1.6A2.09,2.09,0,0,0,0,5a2.44,2.44,0,0,0,2.3,2.5" fill="#e08443" />
</svg>
