<svg id="b6e29995-9852-4c52-abe2-5cf809f84605" xmlns="http://www.w3.org/2000/svg" viewBox="0 0 44.74 26.4">
  <path d="M41.74,3V23.4H3V3H41.74m3-3H0V26.4H44.74V0Z" style="fill: #8d3646"/>
  <g>
    <path d="M11.38,20.31H6.87V6.09h1.9v12.5h2.61Z" style="fill: #2e2044"/>
    <path d="M14.67,20.31c-1.53,0-2.3-.8-2.3-2.42V8.53c0-1.63.76-2.44,2.28-2.44h1.82c1.52,0,2.28.81,2.28,2.44v9.36c0,1.62-.76,2.42-2.3,2.42Zm.46-1.72h1c.5,0,.75-.28.75-.83V8.64A.74.74,0,0,0,16,7.81h-.89a.73.73,0,0,0-.83.83v9.12A.74.74,0,0,0,15.13,18.59Z" style="fill: #2e2044"/>
    <path d="M23.37,15.1V13.38h2.89v6.93H22.54c-1.47,0-2.2-.8-2.2-2.4V8.53c0-1.63.73-2.44,2.2-2.44h1.3a2.16,2.16,0,0,1,2.42,2.47v1.55h-1.9V8.84c0-.68-.27-1-.81-1h-.48c-.55,0-.83.35-.83,1v8.72c0,.68.28,1,.83,1h1.29V15.1Z" style="fill: #2e2044"/>
    <path d="M30,20.31c-1.53,0-2.29-.8-2.29-2.42V8.53c0-1.63.76-2.44,2.27-2.44h1.83c1.52,0,2.27.81,2.27,2.44v9.36c0,1.62-.76,2.42-2.29,2.42Zm.46-1.72h1c.5,0,.75-.28.75-.83V8.64a.74.74,0,0,0-.85-.83h-.89a.74.74,0,0,0-.83.83v9.12A.74.74,0,0,0,30.46,18.59Z" style="fill: #2e2044"/>
    <path d="M37.87,6.09l-.24,10.38H36L35.77,6.09Zm0,11.8v2.42h-2V17.89Z" style="fill: #2e2044"/>
  </g>
</svg>
